<?xml version="1.0" standalone="no"?>
<!DOCTYPE svg PUBLIC "-//W3C//DTD SVG 20010904//EN"
 "http://www.w3.org/TR/2001/REC-SVG-20010904/DTD/svg10.dtd">
<svg version="1.0" xmlns="http://www.w3.org/2000/svg"
 width="4000.000000pt" height="1520.000000pt" viewBox="0 0 4000.000000 1520.000000"
 preserveAspectRatio="xMidYMid meet">

<g transform="translate(0.000000,1520.000000) scale(0.100000,-0.100000)"
fill="#FFFFFF" stroke="none">
<path d="M5505 13373 c-390 -50 -685 -252 -831 -567 -83 -180 -116 -371 -116
-666 -1 -223 13 -347 57 -520 49 -192 136 -378 229 -492 l55 -66 -97 -34
c-118 -40 -326 -140 -424 -204 -183 -117 -329 -273 -425 -452 -29 -53 -53
-100 -53 -104 0 -5 89 -8 199 -8 l198 0 27 39 c42 61 164 174 241 223 133 86
240 133 523 229 196 67 217 76 253 116 45 48 63 93 63 158 0 101 -34 149 -163
228 -120 74 -184 162 -249 349 -90 253 -108 661 -41 922 82 322 330 495 714
499 141 2 198 -10 314 -65 69 -33 100 -56 170 -127 178 -179 225 -322 226
-696 0 -250 -25 -404 -96 -582 -56 -140 -121 -226 -244 -318 -38 -29 -80 -63
-92 -76 -56 -61 -70 -172 -30 -249 37 -74 81 -98 332 -183 257 -87 380 -142
499 -221 117 -78 193 -162 250 -274 58 -116 98 -179 164 -259 29 -34 48 -64
44 -66 -4 -2 -32 -12 -62 -22 -88 -28 -245 -92 -322 -131 -39 -19 -74 -32 -78
-27 -4 4 -13 26 -20 48 -7 22 -32 80 -56 128 -158 322 -438 550 -784 638 -222
57 -570 36 -805 -48 -440 -159 -697 -491 -772 -1003 -24 -164 -24 -562 0 -720
52 -337 162 -621 315 -811 l69 -86 -81 -28 c-45 -16 -127 -47 -183 -71 l-101
-42 -6 96 c-23 356 -58 508 -162 712 -160 312 -444 544 -772 630 -123 32 -236
43 -382 37 -388 -17 -693 -138 -916 -364 -267 -269 -378 -638 -361 -1208 3
-110 13 -245 22 -300 56 -354 177 -650 345 -845 l48 -55 -136 -50 c-395 -145
-690 -340 -877 -580 -63 -81 -142 -210 -170 -277 l-15 -38 229 0 230 0 44 58
c163 211 395 349 842 502 328 112 377 141 421 245 22 54 18 151 -10 210 -27
60 -56 85 -170 155 -47 28 -103 71 -125 96 -113 128 -203 355 -253 634 -20
117 -17 578 5 700 70 380 274 601 630 682 73 17 127 21 262 22 152 1 178 -2
245 -22 167 -53 317 -155 417 -287 136 -178 183 -341 199 -681 21 -442 -107
-890 -308 -1080 -23 -23 -77 -66 -118 -97 -130 -95 -160 -143 -160 -251 1
-101 50 -185 134 -228 21 -11 150 -57 286 -103 277 -94 412 -151 535 -225 142
-85 240 -171 322 -280 l42 -55 -19 -110 c-122 -719 38 -1508 385 -1893 26 -29
46 -54 44 -56 -2 -3 -65 -27 -139 -54 -182 -67 -284 -112 -418 -183 l-114 -60
-126 49 c-70 28 -145 55 -167 62 -22 7 -43 15 -48 17 -4 2 14 28 39 56 155
172 270 446 331 792 25 145 25 583 0 744 -45 283 -157 509 -347 699 -169 169
-379 277 -615 319 -187 32 -500 4 -687 -63 -425 -152 -680 -473 -753 -946 -22
-146 -30 -456 -16 -608 37 -388 168 -746 342 -935 23 -25 40 -47 38 -49 -2 -2
-44 -18 -94 -35 -495 -177 -817 -428 -991 -773 l-44 -88 222 0 223 1 40 56
c71 99 199 205 356 296 84 48 231 108 454 184 247 85 279 99 325 145 47 47 70
102 70 173 0 108 -46 170 -192 259 -83 51 -120 88 -176 175 -71 111 -137 301
-169 490 -32 195 -27 537 13 730 48 236 189 424 389 521 134 65 231 84 435 84
164 0 180 -1 255 -27 237 -79 429 -279 504 -522 36 -116 54 -314 48 -525 -7
-239 -39 -415 -108 -588 -65 -165 -132 -255 -262 -351 -51 -38 -104 -82 -119
-97 -83 -89 -81 -242 5 -333 42 -44 116 -77 314 -140 431 -137 664 -271 819
-473 l45 -58 220 0 219 0 -41 83 c-62 124 -123 210 -221 312 l-88 92 105 42
c57 23 202 75 322 116 263 89 303 106 355 153 123 111 125 311 4 419 -24 21
-86 64 -139 96 -115 69 -170 131 -246 277 -127 246 -191 546 -191 902 0 493
87 773 303 974 181 169 412 246 737 247 138 0 178 -4 245 -22 263 -71 486
-258 605 -505 51 -108 77 -204 95 -351 41 -351 21 -680 -60 -959 -85 -292
-194 -460 -391 -598 -131 -93 -176 -153 -190 -257 -13 -98 44 -215 131 -270
24 -16 156 -65 292 -110 306 -102 396 -137 546 -213 193 -98 342 -214 447
-348 l64 -80 254 0 253 0 -55 106 c-74 142 -152 249 -266 364 -226 227 -508
392 -910 530 -69 24 -127 45 -129 46 -2 2 22 31 54 66 154 170 269 404 345
703 58 229 72 338 77 612 11 511 -57 825 -235 1100 -35 53 -38 62 -24 68 9 4
115 40 235 81 259 88 282 99 336 160 72 83 89 194 43 297 -26 59 -65 95 -181
166 -55 34 -115 79 -132 99 -126 143 -225 386 -276 677 -25 140 -25 605 0 747
76 437 302 676 722 760 137 28 371 29 468 4 158 -42 283 -112 400 -225 224
-215 301 -455 300 -931 0 -220 -14 -346 -59 -522 -81 -324 -195 -503 -411
-649 -103 -69 -150 -138 -160 -233 -10 -97 41 -204 122 -255 25 -16 150 -64
278 -106 273 -92 395 -139 515 -199 192 -97 368 -235 457 -360 l40 -56 243 0
c133 0 242 4 242 8 0 5 -20 47 -44 95 -120 234 -315 441 -561 594 -127 80
-365 192 -535 253 -80 28 -147 54 -149 56 -2 2 20 29 49 61 159 173 290 459
354 773 34 171 46 267 53 455 5 141 -8 428 -23 491 -5 19 7 27 101 68 58 25
204 80 323 120 349 119 379 133 431 213 62 94 61 216 -2 310 -25 37 -59 65
-151 123 -101 63 -128 86 -173 145 -120 158 -211 409 -248 694 -17 126 -19
460 -4 599 20 187 68 346 141 470 43 73 187 217 260 261 159 93 363 141 596
141 280 0 527 -122 693 -343 158 -210 210 -411 210 -822 0 -261 -28 -459 -96
-662 -83 -249 -175 -377 -373 -518 -124 -89 -170 -170 -159 -286 9 -97 65
-177 156 -223 25 -13 145 -56 266 -96 350 -115 495 -178 661 -288 104 -68 211
-166 285 -259 l51 -63 239 0 c131 0 239 4 239 8 0 5 -20 47 -44 95 -114 223
-294 420 -529 576 -155 104 -454 243 -659 307 -32 10 -58 20 -58 23 0 4 26 35
57 71 230 264 375 702 399 1205 11 236 -21 568 -72 743 -124 430 -457 775
-873 906 -129 41 -239 56 -402 56 -279 0 -495 -47 -714 -155 -71 -35 -159 -86
-195 -114 -84 -63 -224 -209 -275 -286 -128 -193 -205 -426 -236 -710 -16
-153 -14 -534 4 -670 8 -60 14 -111 13 -111 0 -1 -48 19 -106 44 -57 25 -157
64 -222 87 l-118 41 26 25 c99 92 233 331 298 529 82 252 111 481 103 814 -9
399 -60 602 -208 843 -70 113 -254 302 -364 373 -267 173 -557 232 -908 185
-295 -39 -532 -146 -717 -322 -223 -212 -333 -450 -381 -823 -14 -107 -18
-517 -6 -597 l8 -52 -113 53 c-62 30 -156 68 -208 86 -52 19 -97 35 -99 36 -2
2 14 25 36 51 170 206 274 501 303 863 18 215 -7 517 -56 672 -115 368 -415
644 -779 719 -84 18 -297 24 -390 12z m2870 -1123 c228 -73 405 -229 511 -453
68 -143 94 -313 94 -606 0 -335 -65 -629 -184 -832 -61 -103 -115 -161 -231
-246 -128 -94 -175 -163 -175 -258 0 -86 55 -181 131 -224 29 -16 155 -64 280
-105 334 -111 494 -183 644 -291 103 -74 155 -125 215 -215 33 -48 82 -116
110 -150 29 -34 50 -63 48 -65 -1 -1 -66 -26 -143 -55 -77 -29 -164 -63 -194
-76 -29 -13 -55 -24 -56 -24 -2 0 -21 33 -43 73 -186 338 -511 580 -892 663
-123 27 -420 25 -580 -4 -444 -80 -778 -316 -959 -680 -104 -208 -161 -503
-161 -835 0 -115 -3 -148 -12 -144 -140 57 -247 98 -303 117 -38 12 -72 24
-74 26 -2 2 19 29 46 61 149 173 258 416 317 715 35 172 46 291 46 482 l0 165
67 38 c116 64 270 128 498 206 275 94 286 99 336 144 78 70 105 165 75 265
-21 74 -70 126 -186 196 -107 65 -159 122 -227 249 -150 282 -211 762 -148
1163 66 415 298 649 709 716 126 20 353 12 441 -16z m-2581 -2100 c276 -70
509 -313 575 -600 45 -195 53 -560 16 -765 -64 -360 -176 -571 -376 -711 -140
-99 -174 -154 -167 -274 5 -89 42 -152 116 -196 29 -18 157 -66 285 -109 127
-43 280 -99 340 -125 111 -49 236 -119 254 -142 6 -7 23 -58 38 -113 67 -249
186 -484 320 -632 32 -36 43 -54 33 -58 -7 -2 -53 -19 -103 -36 -49 -17 -127
-46 -172 -65 l-83 -34 -52 34 c-121 77 -254 133 -407 173 -101 27 -116 28
-341 28 -204 0 -250 -3 -345 -22 -207 -42 -420 -129 -565 -231 -85 -60 -229
-200 -292 -284 -27 -38 -53 -68 -57 -68 -4 0 -23 16 -42 36 -56 59 -219 177
-328 238 -118 67 -289 142 -439 193 -59 20 -109 38 -111 39 -2 2 18 27 44 56
139 153 243 370 315 654 16 64 31 118 32 119 2 1 35 21 74 44 109 64 247 121
493 205 244 84 302 110 343 153 89 94 90 255 2 346 -20 20 -73 59 -118 86
-146 89 -221 194 -299 417 -72 206 -104 448 -93 704 15 372 78 562 241 726
162 164 351 231 651 233 110 1 158 -3 218 -19z"/>
<path d="M27140 7384 c-553 -39 -989 -237 -1355 -616 -172 -178 -262 -306
-366 -523 -146 -306 -207 -628 -196 -1035 9 -357 65 -602 202 -887 103 -214
209 -364 375 -531 355 -356 778 -550 1295 -593 561 -47 1097 107 1495 428 410
331 657 769 736 1308 26 170 25 544 0 710 -52 345 -170 645 -354 904 -78 111
-263 306 -371 393 -289 233 -639 380 -1017 427 -93 12 -363 21 -444 15z m389
-910 c408 -70 762 -379 885 -773 82 -259 80 -592 -4 -841 -81 -241 -258 -462
-481 -602 -362 -228 -893 -235 -1258 -18 -264 157 -455 406 -530 693 -34 131
-44 239 -38 417 9 284 73 474 225 680 271 364 714 527 1201 444z"/>
<path d="M11910 5295 l0 -2025 445 0 445 0 0 795 0 795 885 0 885 0 0 -795 0
-795 445 0 445 0 0 2025 0 2025 -445 0 -445 0 0 -835 0 -835 -885 0 -885 0 0
835 0 835 -445 0 -445 0 0 -2025z"/>
<path d="M16350 5295 l0 -2025 1400 0 1400 0 0 390 0 390 -955 0 -955 0 0 425
0 425 655 0 655 0 0 395 0 395 -655 0 -655 0 0 420 0 420 955 0 955 0 0 395 0
395 -1400 0 -1400 0 0 -2025z"/>
<path d="M19940 5295 l0 -2025 445 0 445 0 2 1292 3 1293 540 -885 540 -885
309 0 309 0 546 887 546 887 3 -1294 2 -1295 445 0 445 0 0 2025 0 2025 -499
0 -498 0 -649 -1065 c-535 -879 -651 -1062 -661 -1050 -6 9 -296 488 -645
1065 l-633 1050 -497 0 -498 0 0 -2025z"/>
<path d="M31061 7298 c-140 -362 -1531 -4014 -1531 -4020 0 -4 216 -8 479 -8
l479 0 16 43 c9 23 70 186 135 362 l119 320 828 0 827 0 133 -358 c73 -198
135 -361 137 -363 2 -2 219 -3 483 -2 l479 3 -771 2020 -770 2020 -517 3 -517
2 -9 -22z m798 -1803 c142 -385 256 -703 254 -707 -2 -5 -240 -8 -529 -8 -444
0 -524 2 -524 14 0 8 117 332 260 721 143 389 260 710 261 714 1 14 33 -69
278 -734z"/>
<path d="M34140 5295 l0 -2025 445 0 445 0 2 1294 3 1295 541 -887 542 -887
308 -2 309 -2 545 886 545 887 3 -1292 2 -1292 445 0 445 0 0 2025 0 2025
-497 0 -498 0 -649 -1066 c-357 -586 -652 -1062 -656 -1057 -4 4 -294 484
-645 1066 l-638 1057 -498 0 -499 0 0 -2025z"/>
</g>
</svg>
